<svg xmlns="http://www.w3.org/2000/svg" width="182.53" height="363.22" viewBox="0 0 182.53 363.22"><title>Stade de Reims logo - Brandlogos.net</title><path d="M512,572.53c38.82-11.59,71.57-55.3,71.57-95.62V399H570.42v77.93c0,15.84-6.12,33.11-17.22,48.64,0,0-15.74,23.84-41.2,33-25.46-9.16-41.2-33-41.2-33-11.11-15.52-17.22-32.8-17.22-48.64V399H440.43v77.93C440.43,517.23,473.18,560.93,512,572.53Z" transform="translate(-420.74 -330.39)" style="fill:#eb0000"/><path d="M498.95,534.18V452.45l-16.29,9v55A90.34,90.34,0,0,0,498.95,534.18Z" transform="translate(-420.74 -330.39)" style="fill:#eb0000"/><path d="M527.95,491.91l14.29,23.88A95.74,95.74,0,0,1,530.06,530l-27.25-50.45,16.19.06a4.27,4.27,0,0,0,3.06-1.31,4.69,4.69,0,0,0,1.33-3.31V463.5a6.66,6.66,0,0,0-3.33-5.46c-7.53-3.91-20.42-11.21-29.9-16.64a16.77,16.77,0,0,1-8.41-14.52V415.13a16.76,16.76,0,0,1,16.74-16.74h28.18a13,13,0,0,1,13,13h0v7.24l-16.29,9V417.07c0-2.65-2-4.36-5.11-4.36H504.58a5.12,5.12,0,0,0-5.11,5.1v6.8a6.2,6.2,0,0,0,3.11,5.37c.17.09,14.51,7.5,28.36,14.94a16.64,16.64,0,0,1,8.78,14.68v19.56S540.06,490.2,527.95,491.91Z" transform="translate(-420.74 -330.39)" style="fill:#eb0000"/><path d="M551.88,372.87v-5.26a24.2,24.2,0,0,1,1.67-8.82l7.3-18.6H548a10.33,10.33,0,0,1-2.79,6.16c-2.38,2.26-6,3.12-9.6,3.12-9.83,0-17.2-9.09-17.2-19.08H505.61c0,10-7.37,19.08-17.2,19.08-3.62,0-7.22-.86-9.6-3.12a10.33,10.33,0,0,1-2.79-6.16H463.16l7.3,18.6a24.2,24.2,0,0,1,1.67,8.82v5.26Zm-35.55-7.69a31.08,31.08,0,0,1-8.64,0,40.82,40.82,0,0,1-5.59-10,43.55,43.55,0,0,1,10-7.44h0a44.07,44.07,0,0,1,9.91,7.41,41,41,0,0,1-5.64,10Z" transform="translate(-420.74 -330.39)" style="fill:#eb0000"/><polygon points="178.2 291.76 162.69 291.76 162.69 302.08 182.52 302.08 182.52 309.36 154.37 309.36 154.37 268.31 182.52 268.31 182.52 275.57 162.69 275.57 162.69 284.76 179.56 284.76 178.2 291.76" style="fill:#eb0000"/><path d="M429.06,693.58h-8.32v-40.7a138.36,138.36,0,0,1,15.85-.67c11.61,0,15.54,3,15.54,13.63,0,8-2.12,11.19-8.11,12.35l9.66,15.39h-9.37l-13.42-21.24h4.89c6.31,0,8-.85,8-6.26s-1.64-6.58-8-6.58h-6.67v34.11Z" transform="translate(-420.74 -330.39)" style="fill:#eb0000"/><polygon points="65.4 345.59 49.89 345.59 49.89 355.92 69.72 355.92 69.72 363.19 41.57 363.19 41.57 322.14 69.72 322.14 69.72 329.4 49.89 329.4 49.89 338.59 66.76 338.59 65.4 345.59" style="fill:#eb0000"/><polygon points="79.29 363.19 79.29 326.06 87.61 321.3 87.61 363.19 79.29 363.19" style="fill:#eb0000"/><path d="M557.25,693.58l-2.43-26.31-9.85,25h-6.65l-9.8-25-2.38,26.31h-8.35l4-41h7c1.7,0,2.33.42,3,2.07l9.86,25.82,9.86-25.82c.64-1.7,1.32-2.07,3-2.07h7l4,41Z" transform="translate(-420.74 -330.39)" style="fill:#eb0000"/><path d="M594.69,661.28a1.92,1.92,0,0,0-1.92-1.92h-9a1.92,1.92,0,0,0-1.92,1.92h0v2.83a2.58,2.58,0,0,0,1.92,2.71l11.33,4.13c4.37,1.53,8.12,3.65,8.12,9.64v5a8,8,0,0,1-8,8H581.79a8,8,0,0,1-8-8v-2.1l7.9-4.31v5.66a1.92,1.92,0,0,0,1.92,1.92h9.63a1.92,1.92,0,0,0,1.92-1.92h0V682c0-1.92-.92-3-2.81-3.59l-10.43-3.94c-4.55-1.59-8.12-3.84-8.12-9.88v-4.08a8,8,0,0,1,8-8h12.79a8,8,0,0,1,8,8v1.64l-7.9,4.31v-5.21Z" transform="translate(-420.74 -330.39)" style="fill:#eb0000"/><polygon points="46.52 309.36 46.54 272.84 33.23 272.84 33.24 268.31 65.76 268.31 64.69 272.84 51.55 272.84 51.52 309.36 46.52 309.36" style="fill:#eb0000"/><path d="M539.34,605.88V633h7.84c6.41,0,8.75-4,8.75-13.5s-2.43-13.56-9.16-13.57Zm25,13.58c0,14.68-4.73,20.77-17.18,20.76,0,0-9.4,0-16.16-.61V599.28c7.09-.71,16.16-.64,16.16-.64,12.45,0,17.16,6.2,17.15,20.82" transform="translate(-420.74 -330.39)" style="fill:#eb0000"/><path d="M518.06,639.75l-5-13.05H495l-5,13.06H484.7l14.5-39.1a3,3,0,0,1,2.76-2h4.1a3,3,0,0,1,2.76,2l14.44,39.09Zm-6.67-17.63-6.69-18.6a.44.44,0,0,0-.41-.29h-.42a.44.44,0,0,0-.41.29l-6.7,18.59Z" transform="translate(-420.74 -330.39)" style="fill:#eb0000"/><path d="M427.51,639.75a6.78,6.78,0,0,1-6.76-6.79v-2.19l5.06-2.77v5.34a2.15,2.15,0,0,0,2.15,2.15h13.82a2.15,2.15,0,0,0,2.15-2.15v-6.62c0-1.67-.43-2.52-3.11-3.48l-13.07-4.33c-4.4-1.54-6.94-3.46-6.94-8.76v-4.71a6.77,6.77,0,0,1,6.77-6.76H441.4a6.72,6.72,0,0,1,6.68,6.76h0v1.79l-5,2.76v-4.15a2.93,2.93,0,0,0-2.93-2.93H428.78a2.93,2.93,0,0,0-2.93,2.92v3.8a3.91,3.91,0,0,0,2.85,4l12.91,4.17c6.13,2.16,7.35,4.85,7.35,8.51V633a6.77,6.77,0,0,1-6.77,6.76Z" transform="translate(-420.74 -330.39)" style="fill:#eb0000"/></svg>